<svg width="339" height="456" fill="none" xmlns="http://www.w3.org/2000/svg"><path d="M301.84 60.284l1.958-4.382c-16.18 3.22-30.397 9.36-42.346 18.409-16.852 12.753-25.189 28.205-29.229 38.916-1.792 4.775-3.126 9.671-3.909 14.387-5.682-.241-12.052.722-18.814 2.851-12.501 3.927-21.334 13.794-27.846 31.041-5.754 15.265-9.085 34.381-12.953 56.514-3.581 20.536-7.641 43.817-14.421 66.586-7.715 26.01-17.833 47.5-30.891 65.674-10.791 15.015-23.716 26.82-38.395 35.095-12.783 7.186-27.308 11.912-43.222 14.058-13.988 1.901-28.046 1.854-41.757.409l10.381 4.64c10.5.648 21.23.251 31.923-1.207 16.4-2.228 31.405-7.122 44.614-14.543 15.182-8.54 28.509-20.719 39.637-36.201 13.304-18.532 23.605-40.386 31.45-66.829 6.831-22.979 10.921-46.374 14.506-67.015 3.824-21.94 7.145-40.89 12.767-55.81 6.042-16.052 14.114-25.173 25.376-28.718 7.012-2.209 12.673-2.829 17.094-2.683a58.407 58.407 0 00-.327 6.324c.068 7.353 1.807 13.069 4.891 16.064 2.472 2.404 5.717 2.982 9.119 1.586 3.547-1.437 6.158-3.74 7.553-6.671 1.34-2.807 1.457-6.033.343-9.085-1.809-4.938-6.505-8.867-12.916-10.775-1.354-.413-2.763-.702-4.239-.936.763-4.385 2-8.919 3.675-13.386 3.869-10.233 11.818-25.007 27.928-37.198 10.828-8.166 23.572-13.88 38.05-17.115zm-66.511 72.381c5.2 1.558 8.984 4.611 10.357 8.375 1.633 4.519-.61 8.774-5.726 10.851-1.954.787-3.571.532-4.912-.769-2.29-2.237-3.65-7.081-3.711-13.302a46.68 46.68 0 01.317-5.968c1.405.203 2.622.491 3.675.813z" fill="#DAE2E8"/><path d="M338.749 49.746l-53.86-11.495 7.748 14.407 32.417-.989-29.556 6.308.007.014-.01-.016-8.744 9.917 13.09-1.839 5.505 10.235 33.403-26.542z" fill="#DAE2E8"/></svg>