<svg width="338" height="316" fill="none" xmlns="http://www.w3.org/2000/svg"><path d="M118.328 85.828C113.433 74.32 106.01 64.035 96.866 56.12c-7.782-6.766-17.118-12.037-27.175-15.415l2.078-3.527c10.371 3.633 19.745 8.996 27.724 15.9 9.599 8.324 17.381 19.1 22.524 31.17 5.142 12.071 7.485 25.157 6.812 37.856a79.175 79.175 0 01-1.268 10.564c11.224 14.333 18.31 31.165 24.258 47.373 1.454 3.94 2.875 7.976 4.244 11.865 5.039 14.212 10.242 28.891 17.552 42.239 8.246 15.059 19.668 28.86 33.033 39.914 13.737 11.365 29.012 19.65 45.412 24.611a124.74 124.74 0 0020.552 4.326l-2.201 3.733c-6.628-.941-13.11-2.327-19.499-4.262-9.993-3.016-19.598-7.241-28.678-12.593-6.294-3.709-12.352-7.976-18.134-12.751-13.737-11.365-25.497-25.575-33.99-41.08-7.452-13.618-12.725-28.454-17.8-42.802a778.997 778.997 0 00-4.247-11.821c-5.483-14.914-11.907-30.313-21.661-43.641-3.362 12.899-9.934 24.323-19.001 32.63-6.718 6.169-14.98 10.594-23.885 12.809-9.233 2.299-18.53 2.034-26.9-.789-8.57-2.874-16.209-8.744-21.561-16.488-5.481-7.959-7.948-17.178-6.982-25.972 1.066-9.709 6.265-18.883 14.637-25.815 7.917-6.552 18.174-10.589 28.168-11.073 9.678-.46 19.477 1.746 29.07 6.542 8.684 4.331 16.895 10.724 23.751 18.473.148.181.307.344.456.524.322-2.197.53-4.439.65-6.686.66-12.127-1.582-24.597-6.477-36.105zm2.405 44.9c-6.524-7.368-14.328-13.429-22.563-17.541-8.987-4.486-18.107-6.547-27.094-6.119-9.131.436-18.542 4.137-25.795 10.153-7.566 6.272-12.262 14.514-13.22 23.174-1.767 15.971 9.599 32.776 25.855 38.256 7.634 2.575 16.165 2.805 24.66.697 8.26-2.062 15.907-6.153 22.146-11.863 9.2-8.415 15.672-20.338 18.551-33.753a68.014 68.014 0 00-2.54-3.004z" fill="#DAE2E8"/><path d="M34 26.605l51.131-6.261-8.409 12.783L46.6 29.528l27.018 8.319-.008.012.01-.014 7.328 9.962-12.044-2.794-5.974 9.081L34 26.605z" fill="#DAE2E8"/></svg>