<svg width="43" height="48" fill="none" xmlns="http://www.w3.org/2000/svg"><path d="M11.2 13.391L0 17.991l12.5 30 30-12.5-4.8-11.6c-.1-.1-.1-.1-.2-.1s-.1-.1-.2-.1c-.1-.1-.2-.1-.4-.1h-.7c-.1 0-.2 0-.3.1-.5.2-.8.6-.9 1-.4 1.5-1.5 2.9-3.1 3.5-2.7 1.1-5.8-.2-7-2.9-1.1-2.7.2-5.8 2.9-7 1.6-.7 3.3-.5 4.7.3.4.2.9.3 1.4.1.1 0 .2-.1.2-.1s.1 0 .1-.1l.1-.1.1-.1.1-.1.1-.1v-.1c.1-.1.1-.2.2-.3v-.4L30 5.591l-11.2 4.7c-.8.2-1.6-.1-1.9-.9-.2-.5-.1-1 .1-1.4.8-1.4 1-3.1.3-4.7-1.1-2.7-4.2-4-7-2.9-2.7 1.1-4 4.2-2.9 7 .6 1.6 2 2.6 3.5 3.1.4.1.8.4 1 .9.4.7 0 1.6-.7 2z" fill="#DAE2E8"/></svg>